<svg width="300" height="300" viewBox="0 0 300 300" fill="none" xmlns="http://www.w3.org/2000/svg">
<rect width="300" height="300" fill="white"/>
<path d="M150 88.5188C170.025 88.5188 172.4 88.5938 180.313 88.9563C200.638 89.8813 210.131 99.525 211.056 119.7C211.419 127.606 211.487 129.981 211.487 150.006C211.487 170.038 211.412 172.406 211.056 180.313C210.125 200.469 200.656 210.131 180.313 211.056C172.4 211.419 170.038 211.494 150 211.494C129.975 211.494 127.6 211.419 119.694 211.056C99.3188 210.125 89.875 200.438 88.95 180.306C88.5875 172.4 88.5125 170.031 88.5125 150C88.5125 129.975 88.5938 127.606 88.95 119.694C89.8813 99.525 99.35 89.875 119.694 88.95C127.606 88.5938 129.975 88.5188 150 88.5188V88.5188ZM150 75C129.631 75 127.081 75.0875 119.081 75.45C91.8438 76.7 76.7063 91.8125 75.4562 119.075C75.0875 127.081 75 129.631 75 150C75 170.369 75.0875 172.925 75.45 180.925C76.7 208.162 91.8125 223.3 119.075 224.55C127.081 224.912 129.631 225 150 225C170.369 225 172.925 224.912 180.925 224.55C208.138 223.3 223.313 208.187 224.544 180.925C224.913 172.925 225 170.369 225 150C225 129.631 224.912 127.081 224.55 119.081C223.325 91.8687 208.194 76.7063 180.931 75.4562C172.925 75.0875 170.369 75 150 75V75ZM150 111.487C128.731 111.487 111.487 128.731 111.487 150C111.487 171.269 128.731 188.519 150 188.519C171.269 188.519 188.513 171.275 188.513 150C188.513 128.731 171.269 111.487 150 111.487ZM150 175C136.194 175 125 163.813 125 150C125 136.194 136.194 125 150 125C163.806 125 175 136.194 175 150C175 163.813 163.806 175 150 175ZM190.038 100.969C185.063 100.969 181.031 105 181.031 109.969C181.031 114.937 185.063 118.969 190.038 118.969C195.006 118.969 199.031 114.937 199.031 109.969C199.031 105 195.006 100.969 190.038 100.969Z" fill="black"/>
</svg>
